solid domino
   facet normal -1.734723e-016 -1.000000e+000 0.000000e+000
      outer loop
         vertex 1.000000e+001 -3.000000e+001 1.200000e+002
         vertex -1.000000e+001 -3.000000e+001 1.200000e+002
         vertex 1.000000e+001 -3.000000e+001 0.000000e+000
      endloop
   endfacet
   facet normal -1.734723e-016 -1.000000e+000 0.000000e+000
      outer loop
         vertex 1.000000e+001 -3.000000e+001 0.000000e+000
         vertex -1.000000e+001 -3.000000e+001 1.200000e+002
         vertex -1.000000e+001 -3.000000e+001 0.000000e+000
      endloop
   endfacet
   facet normal 1.000000e+000 -3.469447e-016 0.000000e+000
      outer loop
         vertex 1.000000e+001 3.000000e+001 1.200000e+002
         vertex 1.000000e+001 -3.000000e+001 1.200000e+002
         vertex 1.000000e+001 3.000000e+001 0.000000e+000
      endloop
   endfacet
   facet normal 1.000000e+000 -3.469447e-016 0.000000e+000
      outer loop
         vertex 1.000000e+001 3.000000e+001 0.000000e+000
         vertex 1.000000e+001 -3.000000e+001 1.200000e+002
         vertex 1.000000e+001 -3.000000e+001 0.000000e+000
      endloop
   endfacet
   facet normal 0.000000e+000 1.000000e+000 0.000000e+000
      outer loop
         vertex -1.000000e+001 3.000000e+001 1.200000e+002
         vertex 1.000000e+001 3.000000e+001 1.200000e+002
         vertex -1.000000e+001 3.000000e+001 0.000000e+000
      endloop
   endfacet
   facet normal 0.000000e+000 1.000000e+000 0.000000e+000
      outer loop
         vertex -1.000000e+001 3.000000e+001 0.000000e+000
         vertex 1.000000e+001 3.000000e+001 1.200000e+002
         vertex 1.000000e+001 3.000000e+001 0.000000e+000
      endloop
   endfacet
   facet normal -1.000000e+000 3.469447e-016 0.000000e+000
      outer loop
         vertex -1.000000e+001 -3.000000e+001 1.200000e+002
         vertex -1.000000e+001 3.000000e+001 1.200000e+002
         vertex -1.000000e+001 -3.000000e+001 0.000000e+000
      endloop
   endfacet
   facet normal -1.000000e+000 3.469447e-016 0.000000e+000
      outer loop
         vertex -1.000000e+001 -3.000000e+001 0.000000e+000
         vertex -1.000000e+001 3.000000e+001 1.200000e+002
         vertex -1.000000e+001 3.000000e+001 0.000000e+000
      endloop
   endfacet
   facet normal 0.000000e+000 0.000000e+000 1.000000e+000
      outer loop
         vertex 1.000000e+001 3.000000e+001 1.200000e+002
         vertex -1.000000e+001 3.000000e+001 1.200000e+002
         vertex 1.000000e+001 -3.000000e+001 1.200000e+002
      endloop
   endfacet
   facet normal 0.000000e+000 0.000000e+000 1.000000e+000
      outer loop
         vertex 1.000000e+001 -3.000000e+001 1.200000e+002
         vertex -1.000000e+001 3.000000e+001 1.200000e+002
         vertex -1.000000e+001 -3.000000e+001 1.200000e+002
      endloop
   endfacet
   facet normal 0.000000e+000 0.000000e+000 -1.000000e+000
      outer loop
         vertex -1.000000e+001 3.000000e+001 0.000000e+000
         vertex 1.000000e+001 3.000000e+001 0.000000e+000
         vertex -1.000000e+001 -3.000000e+001 0.000000e+000
      endloop
   endfacet
   facet normal 0.000000e+000 0.000000e+000 -1.000000e+000
      outer loop
         vertex -1.000000e+001 -3.000000e+001 0.000000e+000
         vertex 1.000000e+001 3.000000e+001 0.000000e+000
         vertex 1.000000e+001 -3.000000e+001 0.000000e+000
      endloop
   endfacet
endsolid